<svg xmlns="http://www.w3.org/2000/svg" xmlns:xlink="http://www.w3.org/1999/xlink" width="500" zoomAndPan="magnify" viewBox="0 0 375 374.999991" height="500" preserveAspectRatio="xMidYMid meet" version="1.2"><defs/><g id="353dd3e540"><g style="fill:#000000;fill-opacity:1;"><g transform="translate(137.812569, 187.951994)"><path style="stroke:none" d="M 8.984375 -21.796875 C 10.921875 -21.796875 12.367188 -21.316406 13.328125 -20.359375 C 14.285156 -19.398438 14.765625 -18.242188 14.765625 -16.890625 L 14.765625 -4.125 C 14.765625 -2.757812 15.164062 -2.078125 15.96875 -2.078125 C 16.21875 -2.078125 16.460938 -2.128906 16.703125 -2.234375 C 16.953125 -2.347656 17.265625 -2.5625 17.640625 -2.875 L 17.640625 -2.078125 C 17.046875 -1.179688 16.398438 -0.503906 15.703125 -0.046875 C 15.015625 0.410156 14.332031 0.640625 13.65625 0.640625 C 12.851562 0.640625 12.226562 0.332031 11.78125 -0.28125 C 11.332031 -0.894531 11.109375 -1.878906 11.109375 -3.234375 L 11.015625 -3.1875 C 9.566406 -0.632812 7.835938 0.640625 5.828125 0.640625 C 4.472656 0.640625 3.351562 0.179688 2.46875 -0.734375 C 1.59375 -1.660156 1.15625 -2.863281 1.15625 -4.34375 C 1.15625 -5.675781 1.539062 -6.925781 2.3125 -8.09375 C 3.082031 -9.269531 4.625 -10.457031 6.9375 -11.65625 L 11.0625 -13.796875 L 11.0625 -17.171875 C 11.0625 -18.222656 10.835938 -19.09375 10.390625 -19.78125 C 9.941406 -20.476562 9.222656 -20.828125 8.234375 -20.828125 C 7.429688 -20.828125 6.757812 -20.5625 6.21875 -20.03125 C 5.6875 -19.507812 5.421875 -18.878906 5.421875 -18.140625 C 5.421875 -17.804688 5.492188 -17.4375 5.640625 -17.03125 C 5.765625 -16.601562 5.828125 -16.265625 5.828125 -16.015625 C 5.828125 -15.546875 5.640625 -15.140625 5.265625 -14.796875 C 4.898438 -14.460938 4.457031 -14.296875 3.9375 -14.296875 C 3.320312 -14.296875 2.828125 -14.519531 2.453125 -14.96875 C 2.078125 -15.414062 1.890625 -15.992188 1.890625 -16.703125 C 1.890625 -17.628906 2.207031 -18.484375 2.84375 -19.265625 C 3.476562 -20.054688 4.332031 -20.675781 5.40625 -21.125 C 6.488281 -21.570312 7.679688 -21.796875 8.984375 -21.796875 Z M 5 -5.828125 C 5 -4.753906 5.242188 -3.859375 5.734375 -3.140625 C 6.234375 -2.429688 6.851562 -2.078125 7.59375 -2.078125 C 8.695312 -2.078125 9.851562 -2.878906 11.0625 -4.484375 L 11.0625 -12.5 C 8.875 -11.382812 7.316406 -10.34375 6.390625 -9.375 C 5.460938 -8.40625 5 -7.222656 5 -5.828125 Z M 5 -5.828125 "/></g></g><g style="fill:#000000;fill-opacity:1;"><g transform="translate(156.138416, 187.951994)"><path style="stroke:none" d="M 9.078125 -20.546875 C 8.328125 -20.515625 7.78125 -20.382812 7.4375 -20.15625 C 7.101562 -19.925781 6.9375 -19.546875 6.9375 -19.015625 C 6.9375 -18.710938 6.972656 -18.425781 7.046875 -18.15625 C 7.128906 -17.894531 7.1875 -17.734375 7.21875 -17.671875 L 10.875 -6.53125 L 10.96875 -6.53125 L 13.796875 -17.546875 C 13.828125 -17.660156 13.894531 -17.914062 14 -18.3125 C 14.101562 -18.71875 14.15625 -19.078125 14.15625 -19.390625 C 14.15625 -19.796875 14.03125 -20.082031 13.78125 -20.25 C 13.539062 -20.414062 13.144531 -20.515625 12.59375 -20.546875 L 12.59375 -21.328125 L 17.5 -21.328125 L 17.5 -20.546875 C 16.789062 -20.265625 16.300781 -19.882812 16.03125 -19.40625 C 15.769531 -18.9375 15.441406 -17.914062 15.046875 -16.34375 L 10.453125 1.578125 C 9.773438 4.171875 8.878906 6.144531 7.765625 7.5 C 6.660156 8.851562 5.382812 9.53125 3.9375 9.53125 C 3.164062 9.53125 2.515625 9.304688 1.984375 8.859375 C 1.460938 8.410156 1.203125 7.847656 1.203125 7.171875 C 1.203125 6.554688 1.398438 6.039062 1.796875 5.625 C 2.203125 5.207031 2.710938 5 3.328125 5 C 3.921875 5 4.492188 5.15625 5.046875 5.46875 C 5.535156 5.644531 5.859375 5.734375 6.015625 5.734375 C 6.722656 5.734375 7.351562 5.1875 7.90625 4.09375 C 8.46875 3 8.914062 1.632812 9.25 0 L 3.84375 -16.296875 C 3.375 -17.710938 2.945312 -18.710938 2.5625 -19.296875 C 2.175781 -19.878906 1.550781 -20.296875 0.6875 -20.546875 L 0.6875 -21.328125 L 9.078125 -21.328125 Z M 9.078125 -20.546875 "/></g></g><g style="fill:#000000;fill-opacity:1;"><g transform="translate(174.464263, 187.951994)"><path style="stroke:none" d="M 22.625 -23.1875 C 22.625 -21.394531 22.003906 -19.832031 20.765625 -18.5 C 19.535156 -17.175781 17.703125 -16.410156 15.265625 -16.203125 L 15.21875 -16.203125 L 15.21875 -16.109375 C 17.90625 -15.984375 20.019531 -15.285156 21.5625 -14.015625 C 23.101562 -12.753906 23.875 -10.90625 23.875 -8.46875 C 23.875 -6.519531 23.390625 -4.914062 22.421875 -3.65625 C 21.453125 -2.394531 20.195312 -1.46875 18.65625 -0.875 C 17.113281 -0.289062 15.460938 0 13.703125 0 L 0.78125 0 L 0.78125 -0.78125 C 1.925781 -0.8125 2.757812 -0.90625 3.28125 -1.0625 C 3.8125 -1.21875 4.195312 -1.570312 4.4375 -2.125 C 4.6875 -2.6875 4.8125 -3.550781 4.8125 -4.71875 L 4.8125 -26.890625 C 4.8125 -28.054688 4.6875 -28.910156 4.4375 -29.453125 C 4.195312 -29.992188 3.804688 -30.347656 3.265625 -30.515625 C 2.722656 -30.691406 1.894531 -30.78125 0.78125 -30.78125 L 0.78125 -31.5625 L 12.03125 -31.5625 C 13.976562 -31.5625 15.757812 -31.222656 17.375 -30.546875 C 19 -29.867188 20.28125 -28.890625 21.21875 -27.609375 C 22.15625 -26.328125 22.625 -24.851562 22.625 -23.1875 Z M 9.15625 -29.671875 L 9.15625 -17.3125 C 10.207031 -17.125 11.023438 -17.03125 11.609375 -17.03125 C 13.648438 -17.03125 15.234375 -17.582031 16.359375 -18.6875 C 17.484375 -19.800781 18.046875 -21.363281 18.046875 -23.375 C 18.046875 -25.375 17.472656 -26.96875 16.328125 -28.15625 C 15.191406 -29.34375 13.59375 -29.9375 11.53125 -29.9375 C 10.875 -29.9375 10.082031 -29.847656 9.15625 -29.671875 Z M 9.15625 -15.1875 L 9.15625 -2.21875 C 10.175781 -1.820312 11.226562 -1.625 12.3125 -1.625 C 14.3125 -1.625 15.875 -2.21875 17 -3.40625 C 18.132812 -4.59375 18.703125 -6.21875 18.703125 -8.28125 C 18.703125 -10.351562 18.03125 -12.054688 16.6875 -13.390625 C 15.34375 -14.734375 13.546875 -15.40625 11.296875 -15.40625 C 10.617188 -15.40625 9.90625 -15.332031 9.15625 -15.1875 Z M 9.15625 -15.1875 "/></g></g><g style="fill:#000000;fill-opacity:1;"><g transform="translate(199.546609, 187.951994)"><path style="stroke:none" d="M 9.078125 -20.546875 C 8.328125 -20.515625 7.78125 -20.382812 7.4375 -20.15625 C 7.101562 -19.925781 6.9375 -19.546875 6.9375 -19.015625 C 6.9375 -18.710938 6.972656 -18.425781 7.046875 -18.15625 C 7.128906 -17.894531 7.1875 -17.734375 7.21875 -17.671875 L 10.875 -6.53125 L 10.96875 -6.53125 L 13.796875 -17.546875 C 13.828125 -17.660156 13.894531 -17.914062 14 -18.3125 C 14.101562 -18.71875 14.15625 -19.078125 14.15625 -19.390625 C 14.15625 -19.796875 14.03125 -20.082031 13.78125 -20.25 C 13.539062 -20.414062 13.144531 -20.515625 12.59375 -20.546875 L 12.59375 -21.328125 L 17.5 -21.328125 L 17.5 -20.546875 C 16.789062 -20.265625 16.300781 -19.882812 16.03125 -19.40625 C 15.769531 -18.9375 15.441406 -17.914062 15.046875 -16.34375 L 10.453125 1.578125 C 9.773438 4.171875 8.878906 6.144531 7.765625 7.5 C 6.660156 8.851562 5.382812 9.53125 3.9375 9.53125 C 3.164062 9.53125 2.515625 9.304688 1.984375 8.859375 C 1.460938 8.410156 1.203125 7.847656 1.203125 7.171875 C 1.203125 6.554688 1.398438 6.039062 1.796875 5.625 C 2.203125 5.207031 2.710938 5 3.328125 5 C 3.921875 5 4.492188 5.15625 5.046875 5.46875 C 5.535156 5.644531 5.859375 5.734375 6.015625 5.734375 C 6.722656 5.734375 7.351562 5.1875 7.90625 4.09375 C 8.46875 3 8.914062 1.632812 9.25 0 L 3.84375 -16.296875 C 3.375 -17.710938 2.945312 -18.710938 2.5625 -19.296875 C 2.175781 -19.878906 1.550781 -20.296875 0.6875 -20.546875 L 0.6875 -21.328125 L 9.078125 -21.328125 Z M 9.078125 -20.546875 "/></g></g><g style="fill:#000000;fill-opacity:1;"><g transform="translate(217.872456, 187.951994)"><path style="stroke:none" d="M 28.5625 -15.640625 C 28.5625 -12.367188 27.84375 -9.550781 26.40625 -7.1875 C 24.96875 -4.832031 23.09375 -3.046875 20.78125 -1.828125 C 18.46875 -0.609375 16 0 13.375 0 L 0.875 0 L 0.875 -0.78125 C 1.988281 -0.8125 2.816406 -0.910156 3.359375 -1.078125 C 3.898438 -1.253906 4.289062 -1.613281 4.53125 -2.15625 C 4.78125 -2.695312 4.90625 -3.566406 4.90625 -4.765625 L 4.90625 -26.84375 C 4.90625 -28.039062 4.78125 -28.910156 4.53125 -29.453125 C 4.289062 -29.992188 3.898438 -30.347656 3.359375 -30.515625 C 2.816406 -30.691406 1.988281 -30.78125 0.875 -30.78125 L 0.875 -31.5625 L 13.09375 -31.5625 C 16.238281 -31.5625 18.976562 -30.890625 21.3125 -29.546875 C 23.644531 -28.203125 25.4375 -26.328125 26.6875 -23.921875 C 27.9375 -21.515625 28.5625 -18.753906 28.5625 -15.640625 Z M 9.25 -29.34375 L 9.25 -2.21875 C 10.363281 -1.695312 11.691406 -1.4375 13.234375 -1.4375 C 16.441406 -1.4375 18.929688 -2.671875 20.703125 -5.140625 C 22.484375 -7.609375 23.375 -11.0625 23.375 -15.5 C 23.375 -19.820312 22.46875 -23.304688 20.65625 -25.953125 C 18.851562 -28.609375 16.226562 -29.9375 12.78125 -29.9375 C 11.632812 -29.9375 10.457031 -29.738281 9.25 -29.34375 Z M 9.25 -29.34375 "/></g></g><g style="fill:#000000;fill-opacity:1;"><g transform="translate(247.76766, 187.951994)"><path style="stroke:none" d="M 8.984375 -21.796875 C 10.921875 -21.796875 12.367188 -21.316406 13.328125 -20.359375 C 14.285156 -19.398438 14.765625 -18.242188 14.765625 -16.890625 L 14.765625 -4.125 C 14.765625 -2.757812 15.164062 -2.078125 15.96875 -2.078125 C 16.21875 -2.078125 16.460938 -2.128906 16.703125 -2.234375 C 16.953125 -2.347656 17.265625 -2.5625 17.640625 -2.875 L 17.640625 -2.078125 C 17.046875 -1.179688 16.398438 -0.503906 15.703125 -0.046875 C 15.015625 0.410156 14.332031 0.640625 13.65625 0.640625 C 12.851562 0.640625 12.226562 0.332031 11.78125 -0.28125 C 11.332031 -0.894531 11.109375 -1.878906 11.109375 -3.234375 L 11.015625 -3.1875 C 9.566406 -0.632812 7.835938 0.640625 5.828125 0.640625 C 4.472656 0.640625 3.351562 0.179688 2.46875 -0.734375 C 1.59375 -1.660156 1.15625 -2.863281 1.15625 -4.34375 C 1.15625 -5.675781 1.539062 -6.925781 2.3125 -8.09375 C 3.082031 -9.269531 4.625 -10.457031 6.9375 -11.65625 L 11.0625 -13.796875 L 11.0625 -17.171875 C 11.0625 -18.222656 10.835938 -19.09375 10.390625 -19.78125 C 9.941406 -20.476562 9.222656 -20.828125 8.234375 -20.828125 C 7.429688 -20.828125 6.757812 -20.5625 6.21875 -20.03125 C 5.6875 -19.507812 5.421875 -18.878906 5.421875 -18.140625 C 5.421875 -17.804688 5.492188 -17.4375 5.640625 -17.03125 C 5.765625 -16.601562 5.828125 -16.265625 5.828125 -16.015625 C 5.828125 -15.546875 5.640625 -15.140625 5.265625 -14.796875 C 4.898438 -14.460938 4.457031 -14.296875 3.9375 -14.296875 C 3.320312 -14.296875 2.828125 -14.519531 2.453125 -14.96875 C 2.078125 -15.414062 1.890625 -15.992188 1.890625 -16.703125 C 1.890625 -17.628906 2.207031 -18.484375 2.84375 -19.265625 C 3.476562 -20.054688 4.332031 -20.675781 5.40625 -21.125 C 6.488281 -21.570312 7.679688 -21.796875 8.984375 -21.796875 Z M 5 -5.828125 C 5 -4.753906 5.242188 -3.859375 5.734375 -3.140625 C 6.234375 -2.429688 6.851562 -2.078125 7.59375 -2.078125 C 8.695312 -2.078125 9.851562 -2.878906 11.0625 -4.484375 L 11.0625 -12.5 C 8.875 -11.382812 7.316406 -10.34375 6.390625 -9.375 C 5.460938 -8.40625 5 -7.222656 5 -5.828125 Z M 5 -5.828125 "/></g></g><g style="fill:#000000;fill-opacity:1;"><g transform="translate(266.093507, 187.951994)"><path style="stroke:none" d="M 9.078125 -20.546875 C 8.328125 -20.515625 7.78125 -20.382812 7.4375 -20.15625 C 7.101562 -19.925781 6.9375 -19.546875 6.9375 -19.015625 C 6.9375 -18.710938 6.972656 -18.425781 7.046875 -18.15625 C 7.128906 -17.894531 7.1875 -17.734375 7.21875 -17.671875 L 10.875 -6.53125 L 10.96875 -6.53125 L 13.796875 -17.546875 C 13.828125 -17.660156 13.894531 -17.914062 14 -18.3125 C 14.101562 -18.71875 14.15625 -19.078125 14.15625 -19.390625 C 14.15625 -19.796875 14.03125 -20.082031 13.78125 -20.25 C 13.539062 -20.414062 13.144531 -20.515625 12.59375 -20.546875 L 12.59375 -21.328125 L 17.5 -21.328125 L 17.5 -20.546875 C 16.789062 -20.265625 16.300781 -19.882812 16.03125 -19.40625 C 15.769531 -18.9375 15.441406 -17.914062 15.046875 -16.34375 L 10.453125 1.578125 C 9.773438 4.171875 8.878906 6.144531 7.765625 7.5 C 6.660156 8.851562 5.382812 9.53125 3.9375 9.53125 C 3.164062 9.53125 2.515625 9.304688 1.984375 8.859375 C 1.460938 8.410156 1.203125 7.847656 1.203125 7.171875 C 1.203125 6.554688 1.398438 6.039062 1.796875 5.625 C 2.203125 5.207031 2.710938 5 3.328125 5 C 3.921875 5 4.492188 5.15625 5.046875 5.46875 C 5.535156 5.644531 5.859375 5.734375 6.015625 5.734375 C 6.722656 5.734375 7.351562 5.1875 7.90625 4.09375 C 8.46875 3 8.914062 1.632812 9.25 0 L 3.84375 -16.296875 C 3.375 -17.710938 2.945312 -18.710938 2.5625 -19.296875 C 2.175781 -19.878906 1.550781 -20.296875 0.6875 -20.546875 L 0.6875 -21.328125 L 9.078125 -21.328125 Z M 9.078125 -20.546875 "/></g></g><g style="fill:#000000;fill-opacity:1;"><g transform="translate(64.568446, 188.077596)"><path style="stroke:none" d="M 74.90625 -47.171875 C 74.851562 -46.972656 74.632812 -46.875 74.25 -46.875 C 73.863281 -46.875 73.28125 -46.78125 72.5 -46.59375 C 71.289062 -46.300781 69.957031 -45.71875 68.5 -44.84375 C 67.039062 -43.96875 65.875 -43.117188 65 -42.296875 C 67.425781 -40.210938 69.148438 -37.785156 70.171875 -35.015625 C 71.191406 -32.242188 71.703125 -29.570312 71.703125 -27 C 71.703125 -23.851562 71.109375 -20.894531 69.921875 -18.125 C 68.734375 -15.363281 67.21875 -12.898438 65.375 -10.734375 C 63.53125 -8.578125 61.613281 -6.742188 59.625 -5.234375 C 56.800781 -3.148438 53.226562 -1.425781 48.90625 -0.0625 C 44.59375 1.289062 39.5 1.941406 33.625 1.890625 C 30.425781 1.835938 27.296875 1.628906 24.234375 1.265625 C 21.179688 0.910156 18.304688 0.515625 15.609375 0.078125 C 12.921875 -0.359375 10.53125 -0.675781 8.4375 -0.875 C 9.800781 2.570312 11.953125 5.289062 14.890625 7.28125 C 17.828125 9.269531 21.695312 10.265625 26.5 10.265625 C 28.78125 10.265625 30.734375 9.992188 32.359375 9.453125 C 33.984375 8.921875 35.1875 8.390625 35.96875 7.859375 C 36.300781 7.671875 36.578125 7.488281 36.796875 7.3125 C 37.015625 7.144531 37.195312 7.109375 37.34375 7.203125 C 37.539062 7.398438 37.539062 7.609375 37.34375 7.828125 C 37.144531 8.046875 36.925781 8.226562 36.6875 8.375 C 35.863281 9 34.53125 9.613281 32.6875 10.21875 C 30.84375 10.832031 28.679688 11.140625 26.203125 11.140625 C 21.203125 11.140625 17.160156 10.09375 14.078125 8 C 11.003906 5.914062 8.691406 3.03125 7.140625 -0.65625 C 6.703125 -0.601562 5.882812 -0.335938 4.6875 0.140625 C 3.5 0.628906 2.128906 0.875 0.578125 0.875 C -0.0976562 0.875 -0.675781 0.773438 -1.15625 0.578125 C -1.644531 0.390625 -1.890625 0.078125 -1.890625 -0.359375 C -1.890625 -0.992188 -1.597656 -1.46875 -1.015625 -1.78125 C -0.429688 -2.09375 0.28125 -2.320312 1.125 -2.46875 C 1.976562 -2.613281 2.789062 -2.6875 3.5625 -2.6875 C 4.144531 -2.6875 4.710938 -2.660156 5.265625 -2.609375 C 5.828125 -2.566406 6.28125 -2.5 6.625 -2.40625 C 6.332031 -3.519531 6.085938 -4.707031 5.890625 -5.96875 C 5.703125 -7.226562 5.609375 -8.632812 5.609375 -10.1875 C 5.609375 -15.71875 6.796875 -20.828125 9.171875 -25.515625 C 11.546875 -30.203125 14.894531 -34.316406 19.21875 -37.859375 C 22.8125 -40.765625 26.945312 -43.164062 31.625 -45.0625 C 36.3125 -46.957031 41.375 -47.90625 46.8125 -47.90625 C 51.175781 -47.90625 54.664062 -47.441406 57.28125 -46.515625 C 59.90625 -45.597656 62.09375 -44.503906 63.84375 -43.234375 C 64.71875 -43.921875 65.953125 -44.695312 67.546875 -45.5625 C 69.148438 -46.4375 70.632812 -47.019531 72 -47.3125 C 72.675781 -47.457031 73.34375 -47.53125 74 -47.53125 C 74.65625 -47.53125 74.957031 -47.410156 74.90625 -47.171875 Z M 62.96875 -42.59375 C 61.5625 -43.707031 59.664062 -44.660156 57.28125 -45.453125 C 54.90625 -46.253906 51.898438 -46.65625 48.265625 -46.65625 C 44.578125 -46.65625 41.046875 -46.132812 37.671875 -45.09375 C 34.296875 -44.050781 31.1875 -42.726562 28.34375 -41.125 C 25.507812 -39.53125 23.050781 -37.859375 20.96875 -36.109375 C 16.882812 -32.710938 13.53125 -28.804688 10.90625 -24.390625 C 8.289062 -19.972656 6.984375 -15.238281 6.984375 -10.1875 C 6.984375 -8.6875 7.046875 -7.28125 7.171875 -5.96875 C 7.296875 -4.65625 7.550781 -3.414062 7.9375 -2.25 C 11.71875 -2.15625 15.316406 -2.765625 18.734375 -4.078125 C 22.160156 -5.390625 25.671875 -7.5 29.265625 -10.40625 C 32.859375 -13.320312 36.765625 -17.082031 40.984375 -21.6875 C 44.617188 -25.570312 48.304688 -29.394531 52.046875 -33.15625 C 55.785156 -36.914062 59.425781 -40.0625 62.96875 -42.59375 Z M 57.953125 -8.296875 C 59.742188 -9.992188 61.460938 -11.945312 63.109375 -14.15625 C 64.765625 -16.363281 66.125 -18.789062 67.1875 -21.4375 C 68.257812 -24.082031 68.796875 -26.882812 68.796875 -29.84375 C 68.796875 -32.46875 68.359375 -34.785156 67.484375 -36.796875 C 66.609375 -38.804688 65.492188 -40.421875 64.140625 -41.640625 C 61.804688 -39.503906 59.535156 -37.1875 57.328125 -34.6875 C 55.117188 -32.1875 53.054688 -29.742188 51.140625 -27.359375 C 49.222656 -24.984375 47.488281 -22.898438 45.9375 -21.109375 C 42.394531 -17.128906 39.054688 -13.890625 35.921875 -11.390625 C 32.796875 -8.890625 29.847656 -6.957031 27.078125 -5.59375 C 24.316406 -4.238281 21.695312 -3.269531 19.21875 -2.6875 C 16.738281 -2.101562 14.410156 -1.738281 12.234375 -1.59375 C 14.023438 -1.257812 16.144531 -0.910156 18.59375 -0.546875 C 21.050781 -0.179688 23.613281 0.109375 26.28125 0.328125 C 28.945312 0.546875 31.421875 0.65625 33.703125 0.65625 C 38.066406 0.65625 41.8125 0.144531 44.9375 -0.875 C 48.070312 -1.894531 50.707031 -3.09375 52.84375 -4.46875 C 54.976562 -5.851562 56.679688 -7.128906 57.953125 -8.296875 Z M 57.953125 -8.296875 "/></g></g><g style="fill:#000000;fill-opacity:1;"><g transform="translate(243.154068, 209.886467)"><path style="stroke:none" d="M 0.796875 0 L 0.796875 -7.609375 L 3.46875 -7.609375 C 4.007812 -7.609375 4.453125 -7.519531 4.796875 -7.34375 C 5.148438 -7.175781 5.414062 -6.945312 5.59375 -6.65625 C 5.769531 -6.363281 5.859375 -6.035156 5.859375 -5.671875 C 5.859375 -5.179688 5.722656 -4.789062 5.453125 -4.5 C 5.191406 -4.21875 4.875 -4.023438 4.5 -3.921875 C 4.789062 -3.867188 5.050781 -3.753906 5.28125 -3.578125 C 5.507812 -3.410156 5.691406 -3.195312 5.828125 -2.9375 C 5.960938 -2.675781 6.03125 -2.390625 6.03125 -2.078125 C 6.03125 -1.691406 5.9375 -1.335938 5.75 -1.015625 C 5.5625 -0.703125 5.28125 -0.453125 4.90625 -0.265625 C 4.539062 -0.0859375 4.09375 0 3.5625 0 Z M 1.71875 -4.28125 L 3.40625 -4.28125 C 3.894531 -4.28125 4.269531 -4.394531 4.53125 -4.625 C 4.789062 -4.851562 4.921875 -5.171875 4.921875 -5.578125 C 4.921875 -5.953125 4.789062 -6.253906 4.53125 -6.484375 C 4.269531 -6.722656 3.882812 -6.84375 3.375 -6.84375 L 1.71875 -6.84375 Z M 1.71875 -0.765625 L 3.46875 -0.765625 C 3.988281 -0.765625 4.390625 -0.882812 4.671875 -1.125 C 4.953125 -1.363281 5.09375 -1.703125 5.09375 -2.140625 C 5.09375 -2.566406 4.941406 -2.90625 4.640625 -3.15625 C 4.347656 -3.414062 3.945312 -3.546875 3.4375 -3.546875 L 1.71875 -3.546875 Z M 1.71875 -0.765625 "/></g></g><g style="fill:#000000;fill-opacity:1;"><g transform="translate(250.488351, 209.886467)"><path style="stroke:none" d="M 2.6875 0 L 2.6875 -2.890625 L 0.21875 -7.609375 L 1.25 -7.609375 L 3.15625 -3.75 L 5.046875 -7.609375 L 6.078125 -7.609375 L 3.609375 -2.890625 L 3.609375 0 Z M 2.6875 0 "/></g></g><g style="fill:#000000;fill-opacity:1;"><g transform="translate(257.573117, 209.886467)"><path style="stroke:none" d=""/></g></g><g style="fill:#000000;fill-opacity:1;"><g transform="translate(261.251376, 209.886467)"><path style="stroke:none" d="M 2.375 0.015625 L 0.28125 -7.609375 L 1.265625 -7.609375 L 2.90625 -1.078125 L 4.765625 -7.609375 L 5.78125 -7.609375 L 7.59375 -1.078125 L 9.25 -7.609375 L 10.234375 -7.609375 L 8.09375 0 L 7.0625 0 L 5.25 -6.28125 L 3.390625 0 Z M 2.375 0.015625 "/></g></g><g style="fill:#000000;fill-opacity:1;"><g transform="translate(272.545455, 209.886467)"><path style="stroke:none" d="M 0.796875 0 L 0.796875 -7.609375 L 1.71875 -7.609375 L 5.765625 -1.515625 L 5.765625 -7.609375 L 6.671875 -7.609375 L 6.671875 0 L 5.765625 0 L 1.71875 -6.09375 L 1.71875 0 Z M 0.796875 0 "/></g></g><g style="fill:#000000;fill-opacity:1;"><g transform="translate(280.823588, 209.886467)"><path style="stroke:none" d="M 0.484375 0 L 0.484375 -0.71875 L 4.21875 -6.8125 L 0.53125 -6.8125 L 0.53125 -7.609375 L 5.28125 -7.609375 L 5.28125 -6.890625 L 1.53125 -0.796875 L 5.328125 -0.796875 L 5.328125 0 Z M 0.484375 0 "/></g></g><g style="fill:#000000;fill-opacity:1;"><g transform="translate(287.431003, 209.886467)"><path style="stroke:none" d="M 0.796875 0 L 0.796875 -7.609375 L 1.71875 -7.609375 L 1.71875 0 Z M 0.796875 0 "/></g></g><g style="fill:#000000;fill-opacity:1;"><g transform="translate(290.751249, 209.886467)"><path style="stroke:none" d="M 0.796875 0 L 0.796875 -7.609375 L 3.140625 -7.609375 C 4.472656 -7.609375 5.457031 -7.265625 6.09375 -6.578125 C 6.726562 -5.898438 7.046875 -4.96875 7.046875 -3.78125 C 7.046875 -2.613281 6.726562 -1.691406 6.09375 -1.015625 C 5.457031 -0.335938 4.472656 0 3.140625 0 Z M 1.71875 -0.765625 L 3.109375 -0.765625 C 3.847656 -0.765625 4.4375 -0.882812 4.875 -1.125 C 5.3125 -1.363281 5.625 -1.707031 5.8125 -2.15625 C 6.007812 -2.613281 6.109375 -3.15625 6.109375 -3.78125 C 6.109375 -4.414062 6.007812 -4.960938 5.8125 -5.421875 C 5.625 -5.878906 5.3125 -6.226562 4.875 -6.46875 C 4.4375 -6.71875 3.847656 -6.84375 3.109375 -6.84375 L 1.71875 -6.84375 Z M 1.71875 -0.765625 "/></g></g></g></svg>